[url]http://www.imdb.com/title/tt1234719/[/url]



[b]Plot: A group of teenagers look to save their town from an invasion of North Korean soldiers.
 


Director: 
Dan Bradley

 Writers: 
Carl Ellsworth , Jeremy Passmore 

Stars:
 Chris Hemsworth, Isabel Lucas and Josh Hutcherson

Genres:
 Action 

Country:
USA 

Language:
English [/b]



Format                                   : AVI
Format/Info                              : Audio Video Interleave
File size                                : 1.35 GiB
Duration                                 : 1h 27mn
Overall bit rate                         : 2 204 Kbps

Video
ID                                       : 0
Format                                   : AVC
Format/Info                              : Advanced Video Codec
Format profile                           : High@L5.1
Format settings, CABAC                   : Yes
Format settings, ReFrames                : 2 frames
Codec ID                                 : H264
Duration                                 : 1h 27mn
Bit rate                                 : 1 874 Kbps
Width                                    : 720 pixels
Height                                   : 340 pixels
Display aspect ratio                     : 2.118
Frame rate                               : 24.000 fps
Color space                              : YUV
Chroma subsampling                       : 4:2:0
Bit depth                                : 8 bits
Scan type                                : Progressive
Bits/(Pixel*Frame)                       : 0.319
Stream size                              : 1.15 GiB (85%)

Audio
ID                                       : 1
Format                                   : MPEG Audio
Format version                           : Version 1
Format profile                           : Layer 3
Codec ID                                 : 55
Codec ID/Hint                            : MP3
Duration                                 : 1h 27mn
Bit rate mode                            : Constant
Bit rate                                 : 320 Kbps
Channel(s)                               : 2 channels
Sampling rate                            : 48.0 KHz
Compression mode                         : Lossy
Stream size                              : 201 MiB (15%)
Alignment                                : Aligned on interleaves
Interleave, duration                     : 42 ms (1.00 video frame)
Interleave, preload duration             : 384 ms
Writing library                          : LAMELAME_MAJOR_VERSI



 
http://bayimg.com/OagJeaaEG
 
http://bayimg.com/OAgjGAaEG
 
http://bayimg.com/oAgJhAAeG